<mxfile host="app.diagrams.net" modified="2024-05-24T05:42:50.610Z" agent="Mozilla/5.0 (Windows NT 10.0; Win64; x64) AppleWebKit/537.36 (KHTML, like Gecko) Chrome/124.0.0.0 Safari/537.36" etag="YBSfkQSShJBDqnZbfYnb" version="24.4.0" type="github" pages="2">
  <diagram name="ページ1" id="nn3Ygpri5boGRnHy5HsV">
    <mxGraphModel dx="4097" dy="2109" grid="1" gridSize="10" guides="1" tooltips="1" connect="1" arrows="1" fold="1" page="1" pageScale="1" pageWidth="1169" pageHeight="1654" background="none" math="0" shadow="0">
      <root>
        <mxCell id="0" />
        <mxCell id="1" parent="0" />
        <mxCell id="KG5-P_Dcu0YrdpyHODR4-47" value="" style="rounded=0;whiteSpace=wrap;html=1;fillColor=#ec1313;fontColor=#333333;strokeColor=#666666;" vertex="1" parent="1">
          <mxGeometry x="190" y="710" width="60" height="30" as="geometry" />
        </mxCell>
        <mxCell id="KG5-P_Dcu0YrdpyHODR4-50" value="" style="group" vertex="1" connectable="0" parent="1">
          <mxGeometry x="200" y="130" width="120" height="1340" as="geometry" />
        </mxCell>
        <mxCell id="KG5-P_Dcu0YrdpyHODR4-18" value="" style="endArrow=none;html=1;rounded=0;" edge="1" parent="KG5-P_Dcu0YrdpyHODR4-50">
          <mxGeometry width="50" height="50" relative="1" as="geometry">
            <mxPoint y="1310" as="sourcePoint" />
            <mxPoint y="30" as="targetPoint" />
          </mxGeometry>
        </mxCell>
        <mxCell id="KG5-P_Dcu0YrdpyHODR4-19" value="" style="endArrow=none;html=1;rounded=0;edgeStyle=orthogonalEdgeStyle;curved=1;" edge="1" parent="KG5-P_Dcu0YrdpyHODR4-50">
          <mxGeometry width="50" height="50" relative="1" as="geometry">
            <mxPoint y="30" as="sourcePoint" />
            <mxPoint x="80" y="30" as="targetPoint" />
            <Array as="points">
              <mxPoint />
              <mxPoint x="80" />
            </Array>
          </mxGeometry>
        </mxCell>
        <mxCell id="KG5-P_Dcu0YrdpyHODR4-20" value="" style="endArrow=none;html=1;rounded=0;edgeStyle=orthogonalEdgeStyle;curved=1;" edge="1" parent="KG5-P_Dcu0YrdpyHODR4-50">
          <mxGeometry width="50" height="50" relative="1" as="geometry">
            <mxPoint x="80" y="1310" as="sourcePoint" />
            <mxPoint y="1310" as="targetPoint" />
            <Array as="points">
              <mxPoint x="80" y="1340" />
              <mxPoint y="1340" />
            </Array>
          </mxGeometry>
        </mxCell>
        <mxCell id="KG5-P_Dcu0YrdpyHODR4-21" value="" style="endArrow=none;html=1;rounded=0;" edge="1" parent="KG5-P_Dcu0YrdpyHODR4-50">
          <mxGeometry width="50" height="50" relative="1" as="geometry">
            <mxPoint x="80" y="170" as="sourcePoint" />
            <mxPoint x="80" y="30" as="targetPoint" />
          </mxGeometry>
        </mxCell>
        <mxCell id="KG5-P_Dcu0YrdpyHODR4-22" value="" style="endArrow=none;html=1;rounded=0;" edge="1" parent="KG5-P_Dcu0YrdpyHODR4-50">
          <mxGeometry width="50" height="50" relative="1" as="geometry">
            <mxPoint x="80" y="1310" as="sourcePoint" />
            <mxPoint x="80" y="1170" as="targetPoint" />
          </mxGeometry>
        </mxCell>
        <mxCell id="KG5-P_Dcu0YrdpyHODR4-23" value="" style="endArrow=none;html=1;rounded=0;curved=1;" edge="1" parent="KG5-P_Dcu0YrdpyHODR4-50">
          <mxGeometry width="50" height="50" relative="1" as="geometry">
            <mxPoint x="40" y="310" as="sourcePoint" />
            <mxPoint x="80" y="170" as="targetPoint" />
            <Array as="points">
              <mxPoint x="40" y="230" />
            </Array>
          </mxGeometry>
        </mxCell>
        <mxCell id="KG5-P_Dcu0YrdpyHODR4-24" value="" style="endArrow=none;html=1;rounded=0;curved=1;" edge="1" parent="KG5-P_Dcu0YrdpyHODR4-50">
          <mxGeometry width="50" height="50" relative="1" as="geometry">
            <mxPoint x="80" y="1170" as="sourcePoint" />
            <mxPoint x="40" y="1030" as="targetPoint" />
            <Array as="points">
              <mxPoint x="40" y="1110" />
            </Array>
          </mxGeometry>
        </mxCell>
        <mxCell id="KG5-P_Dcu0YrdpyHODR4-25" value="" style="endArrow=none;html=1;rounded=0;" edge="1" parent="KG5-P_Dcu0YrdpyHODR4-50">
          <mxGeometry width="50" height="50" relative="1" as="geometry">
            <mxPoint x="40" y="1031.6666666666667" as="sourcePoint" />
            <mxPoint x="40" y="310" as="targetPoint" />
          </mxGeometry>
        </mxCell>
        <mxCell id="KG5-P_Dcu0YrdpyHODR4-31" value="" style="endArrow=none;html=1;rounded=1;edgeStyle=orthogonalEdgeStyle;curved=0;" edge="1" parent="KG5-P_Dcu0YrdpyHODR4-50">
          <mxGeometry width="50" height="50" relative="1" as="geometry">
            <mxPoint x="20" y="50" as="sourcePoint" />
            <mxPoint x="60" y="50" as="targetPoint" />
            <Array as="points">
              <mxPoint x="20" y="30" />
              <mxPoint x="60" y="30" />
            </Array>
          </mxGeometry>
        </mxCell>
        <mxCell id="KG5-P_Dcu0YrdpyHODR4-32" value="" style="endArrow=none;html=1;rounded=1;edgeStyle=orthogonalEdgeStyle;curved=0;" edge="1" parent="KG5-P_Dcu0YrdpyHODR4-50">
          <mxGeometry width="50" height="50" relative="1" as="geometry">
            <mxPoint x="20" y="130" as="sourcePoint" />
            <mxPoint x="60" y="130" as="targetPoint" />
            <Array as="points">
              <mxPoint x="20" y="150" />
              <mxPoint x="60" y="150" />
            </Array>
          </mxGeometry>
        </mxCell>
        <mxCell id="KG5-P_Dcu0YrdpyHODR4-33" value="" style="endArrow=none;html=1;rounded=0;" edge="1" parent="KG5-P_Dcu0YrdpyHODR4-50">
          <mxGeometry width="50" height="50" relative="1" as="geometry">
            <mxPoint x="20" y="130" as="sourcePoint" />
            <mxPoint x="20" y="50" as="targetPoint" />
          </mxGeometry>
        </mxCell>
        <mxCell id="KG5-P_Dcu0YrdpyHODR4-34" value="" style="endArrow=none;html=1;rounded=0;" edge="1" parent="KG5-P_Dcu0YrdpyHODR4-50">
          <mxGeometry width="50" height="50" relative="1" as="geometry">
            <mxPoint x="60" y="130" as="sourcePoint" />
            <mxPoint x="60" y="50" as="targetPoint" />
          </mxGeometry>
        </mxCell>
        <mxCell id="KG5-P_Dcu0YrdpyHODR4-36" value="" style="endArrow=none;html=1;rounded=1;edgeStyle=orthogonalEdgeStyle;curved=0;" edge="1" parent="KG5-P_Dcu0YrdpyHODR4-50">
          <mxGeometry width="50" height="50" relative="1" as="geometry">
            <mxPoint x="20" y="1210" as="sourcePoint" />
            <mxPoint x="60" y="1210" as="targetPoint" />
            <Array as="points">
              <mxPoint x="20" y="1190" />
              <mxPoint x="60" y="1190" />
            </Array>
          </mxGeometry>
        </mxCell>
        <mxCell id="KG5-P_Dcu0YrdpyHODR4-37" value="" style="endArrow=none;html=1;rounded=1;edgeStyle=orthogonalEdgeStyle;curved=0;" edge="1" parent="KG5-P_Dcu0YrdpyHODR4-50">
          <mxGeometry width="50" height="50" relative="1" as="geometry">
            <mxPoint x="20" y="1290" as="sourcePoint" />
            <mxPoint x="60" y="1290" as="targetPoint" />
            <Array as="points">
              <mxPoint x="20" y="1310" />
              <mxPoint x="60" y="1310" />
            </Array>
          </mxGeometry>
        </mxCell>
        <mxCell id="KG5-P_Dcu0YrdpyHODR4-38" value="" style="endArrow=none;html=1;rounded=0;" edge="1" parent="KG5-P_Dcu0YrdpyHODR4-50">
          <mxGeometry width="50" height="50" relative="1" as="geometry">
            <mxPoint x="20" y="1290" as="sourcePoint" />
            <mxPoint x="20" y="1210" as="targetPoint" />
          </mxGeometry>
        </mxCell>
        <mxCell id="KG5-P_Dcu0YrdpyHODR4-39" value="" style="endArrow=none;html=1;rounded=0;" edge="1" parent="KG5-P_Dcu0YrdpyHODR4-50">
          <mxGeometry width="50" height="50" relative="1" as="geometry">
            <mxPoint x="60" y="1290" as="sourcePoint" />
            <mxPoint x="60" y="1210" as="targetPoint" />
          </mxGeometry>
        </mxCell>
        <mxCell id="KG5-P_Dcu0YrdpyHODR4-41" value="" style="endArrow=none;html=1;rounded=1;curved=0;" edge="1" parent="KG5-P_Dcu0YrdpyHODR4-50">
          <mxGeometry width="50" height="50" relative="1" as="geometry">
            <mxPoint x="10" y="640" as="sourcePoint" />
            <mxPoint x="30" y="640" as="targetPoint" />
            <Array as="points">
              <mxPoint x="10" y="630" />
              <mxPoint x="30" y="630" />
            </Array>
          </mxGeometry>
        </mxCell>
        <mxCell id="KG5-P_Dcu0YrdpyHODR4-42" value="" style="endArrow=none;html=1;rounded=0;" edge="1" parent="KG5-P_Dcu0YrdpyHODR4-50">
          <mxGeometry width="50" height="50" relative="1" as="geometry">
            <mxPoint x="10" y="700" as="sourcePoint" />
            <mxPoint x="10" y="640" as="targetPoint" />
          </mxGeometry>
        </mxCell>
        <mxCell id="KG5-P_Dcu0YrdpyHODR4-43" value="" style="endArrow=none;html=1;rounded=1;curved=0;" edge="1" parent="KG5-P_Dcu0YrdpyHODR4-50">
          <mxGeometry width="50" height="50" relative="1" as="geometry">
            <mxPoint x="10" y="700" as="sourcePoint" />
            <mxPoint x="30" y="700" as="targetPoint" />
            <Array as="points">
              <mxPoint x="10" y="710" />
              <mxPoint x="30" y="710" />
            </Array>
          </mxGeometry>
        </mxCell>
        <mxCell id="KG5-P_Dcu0YrdpyHODR4-44" value="" style="endArrow=none;html=1;rounded=0;" edge="1" parent="KG5-P_Dcu0YrdpyHODR4-50">
          <mxGeometry width="50" height="50" relative="1" as="geometry">
            <mxPoint x="30" y="700" as="sourcePoint" />
            <mxPoint x="30" y="640" as="targetPoint" />
          </mxGeometry>
        </mxCell>
        <mxCell id="KG5-P_Dcu0YrdpyHODR4-72" value="" style="group" vertex="1" connectable="0" parent="1">
          <mxGeometry x="520" y="180" width="110" height="1340" as="geometry" />
        </mxCell>
        <mxCell id="KG5-P_Dcu0YrdpyHODR4-73" value="" style="endArrow=none;html=1;rounded=0;" edge="1" parent="KG5-P_Dcu0YrdpyHODR4-72">
          <mxGeometry width="50" height="50" relative="1" as="geometry">
            <mxPoint y="1310" as="sourcePoint" />
            <mxPoint y="30" as="targetPoint" />
          </mxGeometry>
        </mxCell>
        <mxCell id="KG5-P_Dcu0YrdpyHODR4-74" value="" style="endArrow=none;html=1;rounded=0;edgeStyle=orthogonalEdgeStyle;curved=1;" edge="1" parent="KG5-P_Dcu0YrdpyHODR4-72">
          <mxGeometry width="50" height="50" relative="1" as="geometry">
            <mxPoint y="30" as="sourcePoint" />
            <mxPoint x="80" y="30" as="targetPoint" />
            <Array as="points">
              <mxPoint />
              <mxPoint x="80" />
            </Array>
          </mxGeometry>
        </mxCell>
        <mxCell id="KG5-P_Dcu0YrdpyHODR4-75" value="" style="endArrow=none;html=1;rounded=0;edgeStyle=orthogonalEdgeStyle;curved=1;" edge="1" parent="KG5-P_Dcu0YrdpyHODR4-72">
          <mxGeometry width="50" height="50" relative="1" as="geometry">
            <mxPoint x="80" y="1310" as="sourcePoint" />
            <mxPoint y="1310" as="targetPoint" />
            <Array as="points">
              <mxPoint x="80" y="1340" />
              <mxPoint y="1340" />
            </Array>
          </mxGeometry>
        </mxCell>
        <mxCell id="KG5-P_Dcu0YrdpyHODR4-76" value="" style="endArrow=none;html=1;rounded=0;" edge="1" parent="KG5-P_Dcu0YrdpyHODR4-72">
          <mxGeometry width="50" height="50" relative="1" as="geometry">
            <mxPoint x="80" y="170" as="sourcePoint" />
            <mxPoint x="80" y="30" as="targetPoint" />
          </mxGeometry>
        </mxCell>
        <mxCell id="KG5-P_Dcu0YrdpyHODR4-77" value="" style="endArrow=none;html=1;rounded=0;" edge="1" parent="KG5-P_Dcu0YrdpyHODR4-72">
          <mxGeometry width="50" height="50" relative="1" as="geometry">
            <mxPoint x="80" y="1310" as="sourcePoint" />
            <mxPoint x="80" y="1170" as="targetPoint" />
          </mxGeometry>
        </mxCell>
        <mxCell id="KG5-P_Dcu0YrdpyHODR4-78" value="" style="endArrow=none;html=1;rounded=0;curved=1;" edge="1" parent="KG5-P_Dcu0YrdpyHODR4-72">
          <mxGeometry width="50" height="50" relative="1" as="geometry">
            <mxPoint x="40" y="310" as="sourcePoint" />
            <mxPoint x="80" y="170" as="targetPoint" />
            <Array as="points">
              <mxPoint x="40" y="230" />
            </Array>
          </mxGeometry>
        </mxCell>
        <mxCell id="KG5-P_Dcu0YrdpyHODR4-79" value="" style="endArrow=none;html=1;rounded=0;curved=1;" edge="1" parent="KG5-P_Dcu0YrdpyHODR4-72">
          <mxGeometry width="50" height="50" relative="1" as="geometry">
            <mxPoint x="80" y="1170" as="sourcePoint" />
            <mxPoint x="40" y="1030" as="targetPoint" />
            <Array as="points">
              <mxPoint x="40" y="1110" />
            </Array>
          </mxGeometry>
        </mxCell>
        <mxCell id="KG5-P_Dcu0YrdpyHODR4-80" value="" style="endArrow=none;html=1;rounded=0;" edge="1" parent="KG5-P_Dcu0YrdpyHODR4-72">
          <mxGeometry width="50" height="50" relative="1" as="geometry">
            <mxPoint x="40" y="1031.6666666666667" as="sourcePoint" />
            <mxPoint x="40" y="310" as="targetPoint" />
          </mxGeometry>
        </mxCell>
        <mxCell id="KG5-P_Dcu0YrdpyHODR4-81" value="" style="endArrow=none;html=1;rounded=1;edgeStyle=orthogonalEdgeStyle;curved=0;" edge="1" parent="KG5-P_Dcu0YrdpyHODR4-72">
          <mxGeometry width="50" height="50" relative="1" as="geometry">
            <mxPoint x="20" y="50" as="sourcePoint" />
            <mxPoint x="60" y="50" as="targetPoint" />
            <Array as="points">
              <mxPoint x="20" y="30" />
              <mxPoint x="60" y="30" />
            </Array>
          </mxGeometry>
        </mxCell>
        <mxCell id="KG5-P_Dcu0YrdpyHODR4-82" value="" style="endArrow=none;html=1;rounded=1;edgeStyle=orthogonalEdgeStyle;curved=0;" edge="1" parent="KG5-P_Dcu0YrdpyHODR4-72">
          <mxGeometry width="50" height="50" relative="1" as="geometry">
            <mxPoint x="20" y="130" as="sourcePoint" />
            <mxPoint x="60" y="130" as="targetPoint" />
            <Array as="points">
              <mxPoint x="20" y="150" />
              <mxPoint x="60" y="150" />
            </Array>
          </mxGeometry>
        </mxCell>
        <mxCell id="KG5-P_Dcu0YrdpyHODR4-83" value="" style="endArrow=none;html=1;rounded=0;" edge="1" parent="KG5-P_Dcu0YrdpyHODR4-72">
          <mxGeometry width="50" height="50" relative="1" as="geometry">
            <mxPoint x="20" y="130" as="sourcePoint" />
            <mxPoint x="20" y="50" as="targetPoint" />
          </mxGeometry>
        </mxCell>
        <mxCell id="KG5-P_Dcu0YrdpyHODR4-84" value="" style="endArrow=none;html=1;rounded=0;" edge="1" parent="KG5-P_Dcu0YrdpyHODR4-72">
          <mxGeometry width="50" height="50" relative="1" as="geometry">
            <mxPoint x="60" y="130" as="sourcePoint" />
            <mxPoint x="60" y="50" as="targetPoint" />
          </mxGeometry>
        </mxCell>
        <mxCell id="KG5-P_Dcu0YrdpyHODR4-85" value="" style="endArrow=none;html=1;rounded=1;edgeStyle=orthogonalEdgeStyle;curved=0;" edge="1" parent="KG5-P_Dcu0YrdpyHODR4-72">
          <mxGeometry width="50" height="50" relative="1" as="geometry">
            <mxPoint x="20" y="1210" as="sourcePoint" />
            <mxPoint x="60" y="1210" as="targetPoint" />
            <Array as="points">
              <mxPoint x="20" y="1190" />
              <mxPoint x="60" y="1190" />
            </Array>
          </mxGeometry>
        </mxCell>
        <mxCell id="KG5-P_Dcu0YrdpyHODR4-86" value="" style="endArrow=none;html=1;rounded=1;edgeStyle=orthogonalEdgeStyle;curved=0;" edge="1" parent="KG5-P_Dcu0YrdpyHODR4-72">
          <mxGeometry width="50" height="50" relative="1" as="geometry">
            <mxPoint x="20" y="1290" as="sourcePoint" />
            <mxPoint x="60" y="1290" as="targetPoint" />
            <Array as="points">
              <mxPoint x="20" y="1310" />
              <mxPoint x="60" y="1310" />
            </Array>
          </mxGeometry>
        </mxCell>
        <mxCell id="KG5-P_Dcu0YrdpyHODR4-87" value="" style="endArrow=none;html=1;rounded=0;" edge="1" parent="KG5-P_Dcu0YrdpyHODR4-72">
          <mxGeometry width="50" height="50" relative="1" as="geometry">
            <mxPoint x="20" y="1290" as="sourcePoint" />
            <mxPoint x="20" y="1210" as="targetPoint" />
          </mxGeometry>
        </mxCell>
        <mxCell id="KG5-P_Dcu0YrdpyHODR4-88" value="" style="endArrow=none;html=1;rounded=0;" edge="1" parent="KG5-P_Dcu0YrdpyHODR4-72">
          <mxGeometry width="50" height="50" relative="1" as="geometry">
            <mxPoint x="60" y="1290" as="sourcePoint" />
            <mxPoint x="60" y="1210" as="targetPoint" />
          </mxGeometry>
        </mxCell>
        <mxCell id="KG5-P_Dcu0YrdpyHODR4-89" value="" style="endArrow=none;html=1;rounded=1;curved=0;" edge="1" parent="KG5-P_Dcu0YrdpyHODR4-72">
          <mxGeometry width="50" height="50" relative="1" as="geometry">
            <mxPoint x="10" y="640" as="sourcePoint" />
            <mxPoint x="30" y="640" as="targetPoint" />
            <Array as="points">
              <mxPoint x="10" y="630" />
              <mxPoint x="30" y="630" />
            </Array>
          </mxGeometry>
        </mxCell>
        <mxCell id="KG5-P_Dcu0YrdpyHODR4-90" value="" style="endArrow=none;html=1;rounded=0;" edge="1" parent="KG5-P_Dcu0YrdpyHODR4-72">
          <mxGeometry width="50" height="50" relative="1" as="geometry">
            <mxPoint x="10" y="700" as="sourcePoint" />
            <mxPoint x="10" y="640" as="targetPoint" />
          </mxGeometry>
        </mxCell>
        <mxCell id="KG5-P_Dcu0YrdpyHODR4-91" value="" style="endArrow=none;html=1;rounded=1;curved=0;" edge="1" parent="KG5-P_Dcu0YrdpyHODR4-72">
          <mxGeometry width="50" height="50" relative="1" as="geometry">
            <mxPoint x="10" y="700" as="sourcePoint" />
            <mxPoint x="30" y="700" as="targetPoint" />
            <Array as="points">
              <mxPoint x="10" y="710" />
              <mxPoint x="30" y="710" />
            </Array>
          </mxGeometry>
        </mxCell>
        <mxCell id="KG5-P_Dcu0YrdpyHODR4-92" value="" style="endArrow=none;html=1;rounded=0;" edge="1" parent="KG5-P_Dcu0YrdpyHODR4-72">
          <mxGeometry width="50" height="50" relative="1" as="geometry">
            <mxPoint x="30" y="700" as="sourcePoint" />
            <mxPoint x="30" y="640" as="targetPoint" />
          </mxGeometry>
        </mxCell>
        <mxCell id="KG5-P_Dcu0YrdpyHODR4-93" value="" style="group;rotation=-180;" vertex="1" connectable="0" parent="1">
          <mxGeometry x="300" y="110" width="80" height="1340" as="geometry" />
        </mxCell>
        <mxCell id="KG5-P_Dcu0YrdpyHODR4-94" value="" style="endArrow=none;html=1;rounded=0;" edge="1" parent="KG5-P_Dcu0YrdpyHODR4-93">
          <mxGeometry width="50" height="50" relative="1" as="geometry">
            <mxPoint x="80" y="30" as="sourcePoint" />
            <mxPoint x="80" y="1310" as="targetPoint" />
          </mxGeometry>
        </mxCell>
        <mxCell id="KG5-P_Dcu0YrdpyHODR4-95" value="" style="endArrow=none;html=1;rounded=0;edgeStyle=orthogonalEdgeStyle;curved=1;" edge="1" parent="KG5-P_Dcu0YrdpyHODR4-93">
          <mxGeometry width="50" height="50" relative="1" as="geometry">
            <mxPoint x="80" y="1310" as="sourcePoint" />
            <mxPoint y="1310" as="targetPoint" />
            <Array as="points">
              <mxPoint x="80" y="1340" />
              <mxPoint y="1340" />
            </Array>
          </mxGeometry>
        </mxCell>
        <mxCell id="KG5-P_Dcu0YrdpyHODR4-96" value="" style="endArrow=none;html=1;rounded=0;edgeStyle=orthogonalEdgeStyle;curved=1;" edge="1" parent="KG5-P_Dcu0YrdpyHODR4-93">
          <mxGeometry width="50" height="50" relative="1" as="geometry">
            <mxPoint y="30" as="sourcePoint" />
            <mxPoint x="80" y="30" as="targetPoint" />
            <Array as="points">
              <mxPoint />
              <mxPoint x="80" />
            </Array>
          </mxGeometry>
        </mxCell>
        <mxCell id="KG5-P_Dcu0YrdpyHODR4-97" value="" style="endArrow=none;html=1;rounded=0;" edge="1" parent="KG5-P_Dcu0YrdpyHODR4-93">
          <mxGeometry width="50" height="50" relative="1" as="geometry">
            <mxPoint y="1170" as="sourcePoint" />
            <mxPoint y="1310" as="targetPoint" />
          </mxGeometry>
        </mxCell>
        <mxCell id="KG5-P_Dcu0YrdpyHODR4-98" value="" style="endArrow=none;html=1;rounded=0;" edge="1" parent="KG5-P_Dcu0YrdpyHODR4-93">
          <mxGeometry width="50" height="50" relative="1" as="geometry">
            <mxPoint y="30" as="sourcePoint" />
            <mxPoint y="170" as="targetPoint" />
          </mxGeometry>
        </mxCell>
        <mxCell id="KG5-P_Dcu0YrdpyHODR4-99" value="" style="endArrow=none;html=1;rounded=0;curved=1;" edge="1" parent="KG5-P_Dcu0YrdpyHODR4-93">
          <mxGeometry width="50" height="50" relative="1" as="geometry">
            <mxPoint x="40" y="1030" as="sourcePoint" />
            <mxPoint y="1170" as="targetPoint" />
            <Array as="points">
              <mxPoint x="40" y="1110" />
            </Array>
          </mxGeometry>
        </mxCell>
        <mxCell id="KG5-P_Dcu0YrdpyHODR4-100" value="" style="endArrow=none;html=1;rounded=0;curved=1;" edge="1" parent="KG5-P_Dcu0YrdpyHODR4-93">
          <mxGeometry width="50" height="50" relative="1" as="geometry">
            <mxPoint y="170" as="sourcePoint" />
            <mxPoint x="40" y="310" as="targetPoint" />
            <Array as="points">
              <mxPoint x="40" y="230" />
            </Array>
          </mxGeometry>
        </mxCell>
        <mxCell id="KG5-P_Dcu0YrdpyHODR4-101" value="" style="endArrow=none;html=1;rounded=0;" edge="1" parent="KG5-P_Dcu0YrdpyHODR4-93">
          <mxGeometry width="50" height="50" relative="1" as="geometry">
            <mxPoint x="40" y="308" as="sourcePoint" />
            <mxPoint x="40" y="1030" as="targetPoint" />
          </mxGeometry>
        </mxCell>
        <mxCell id="KG5-P_Dcu0YrdpyHODR4-102" value="" style="endArrow=none;html=1;rounded=1;edgeStyle=orthogonalEdgeStyle;curved=0;" edge="1" parent="KG5-P_Dcu0YrdpyHODR4-93">
          <mxGeometry width="50" height="50" relative="1" as="geometry">
            <mxPoint x="60" y="1290" as="sourcePoint" />
            <mxPoint x="20" y="1290" as="targetPoint" />
            <Array as="points">
              <mxPoint x="60" y="1310" />
              <mxPoint x="20" y="1310" />
            </Array>
          </mxGeometry>
        </mxCell>
        <mxCell id="KG5-P_Dcu0YrdpyHODR4-103" value="" style="endArrow=none;html=1;rounded=1;edgeStyle=orthogonalEdgeStyle;curved=0;" edge="1" parent="KG5-P_Dcu0YrdpyHODR4-93">
          <mxGeometry width="50" height="50" relative="1" as="geometry">
            <mxPoint x="60" y="1210" as="sourcePoint" />
            <mxPoint x="20" y="1210" as="targetPoint" />
            <Array as="points">
              <mxPoint x="60" y="1190" />
              <mxPoint x="20" y="1190" />
            </Array>
          </mxGeometry>
        </mxCell>
        <mxCell id="KG5-P_Dcu0YrdpyHODR4-104" value="" style="endArrow=none;html=1;rounded=0;" edge="1" parent="KG5-P_Dcu0YrdpyHODR4-93">
          <mxGeometry width="50" height="50" relative="1" as="geometry">
            <mxPoint x="60" y="1210" as="sourcePoint" />
            <mxPoint x="60" y="1290" as="targetPoint" />
          </mxGeometry>
        </mxCell>
        <mxCell id="KG5-P_Dcu0YrdpyHODR4-105" value="" style="endArrow=none;html=1;rounded=0;" edge="1" parent="KG5-P_Dcu0YrdpyHODR4-93">
          <mxGeometry width="50" height="50" relative="1" as="geometry">
            <mxPoint x="20" y="1210" as="sourcePoint" />
            <mxPoint x="20" y="1290" as="targetPoint" />
          </mxGeometry>
        </mxCell>
        <mxCell id="KG5-P_Dcu0YrdpyHODR4-106" value="" style="endArrow=none;html=1;rounded=1;edgeStyle=orthogonalEdgeStyle;curved=0;" edge="1" parent="KG5-P_Dcu0YrdpyHODR4-93">
          <mxGeometry width="50" height="50" relative="1" as="geometry">
            <mxPoint x="60" y="130" as="sourcePoint" />
            <mxPoint x="20" y="130" as="targetPoint" />
            <Array as="points">
              <mxPoint x="60" y="150" />
              <mxPoint x="20" y="150" />
            </Array>
          </mxGeometry>
        </mxCell>
        <mxCell id="KG5-P_Dcu0YrdpyHODR4-107" value="" style="endArrow=none;html=1;rounded=1;edgeStyle=orthogonalEdgeStyle;curved=0;" edge="1" parent="KG5-P_Dcu0YrdpyHODR4-93">
          <mxGeometry width="50" height="50" relative="1" as="geometry">
            <mxPoint x="60" y="50" as="sourcePoint" />
            <mxPoint x="20" y="50" as="targetPoint" />
            <Array as="points">
              <mxPoint x="60" y="30" />
              <mxPoint x="20" y="30" />
            </Array>
          </mxGeometry>
        </mxCell>
        <mxCell id="KG5-P_Dcu0YrdpyHODR4-108" value="" style="endArrow=none;html=1;rounded=0;" edge="1" parent="KG5-P_Dcu0YrdpyHODR4-93">
          <mxGeometry width="50" height="50" relative="1" as="geometry">
            <mxPoint x="60" y="50" as="sourcePoint" />
            <mxPoint x="60" y="130" as="targetPoint" />
          </mxGeometry>
        </mxCell>
        <mxCell id="KG5-P_Dcu0YrdpyHODR4-109" value="" style="endArrow=none;html=1;rounded=0;" edge="1" parent="KG5-P_Dcu0YrdpyHODR4-93">
          <mxGeometry width="50" height="50" relative="1" as="geometry">
            <mxPoint x="20" y="50" as="sourcePoint" />
            <mxPoint x="20" y="130" as="targetPoint" />
          </mxGeometry>
        </mxCell>
        <mxCell id="KG5-P_Dcu0YrdpyHODR4-110" value="" style="endArrow=none;html=1;rounded=1;curved=0;" edge="1" parent="KG5-P_Dcu0YrdpyHODR4-93">
          <mxGeometry width="50" height="50" relative="1" as="geometry">
            <mxPoint x="70" y="700" as="sourcePoint" />
            <mxPoint x="50" y="700" as="targetPoint" />
            <Array as="points">
              <mxPoint x="70" y="710" />
              <mxPoint x="50" y="710" />
            </Array>
          </mxGeometry>
        </mxCell>
        <mxCell id="KG5-P_Dcu0YrdpyHODR4-111" value="" style="endArrow=none;html=1;rounded=0;" edge="1" parent="KG5-P_Dcu0YrdpyHODR4-93">
          <mxGeometry width="50" height="50" relative="1" as="geometry">
            <mxPoint x="70" y="640" as="sourcePoint" />
            <mxPoint x="70" y="700" as="targetPoint" />
          </mxGeometry>
        </mxCell>
        <mxCell id="KG5-P_Dcu0YrdpyHODR4-112" value="" style="endArrow=none;html=1;rounded=1;curved=0;" edge="1" parent="KG5-P_Dcu0YrdpyHODR4-93">
          <mxGeometry width="50" height="50" relative="1" as="geometry">
            <mxPoint x="70" y="640" as="sourcePoint" />
            <mxPoint x="50" y="640" as="targetPoint" />
            <Array as="points">
              <mxPoint x="70" y="630" />
              <mxPoint x="50" y="630" />
            </Array>
          </mxGeometry>
        </mxCell>
        <mxCell id="KG5-P_Dcu0YrdpyHODR4-113" value="" style="endArrow=none;html=1;rounded=0;" edge="1" parent="KG5-P_Dcu0YrdpyHODR4-93">
          <mxGeometry width="50" height="50" relative="1" as="geometry">
            <mxPoint x="50" y="640" as="sourcePoint" />
            <mxPoint x="50" y="700" as="targetPoint" />
          </mxGeometry>
        </mxCell>
      </root>
    </mxGraphModel>
  </diagram>
  <diagram id="dmRfqCDNV_rxT5ZDDW0S" name="ページ2">
    <mxGraphModel dx="2329" dy="2106" grid="1" gridSize="10" guides="1" tooltips="1" connect="1" arrows="1" fold="1" page="1" pageScale="1" pageWidth="1169" pageHeight="1654" math="0" shadow="0">
      <root>
        <mxCell id="0" />
        <mxCell id="1" parent="0" />
        <mxCell id="SVQNkhZTiH-Occnp4saY-2" value="" style="group;strokeWidth=3;" vertex="1" connectable="0" parent="1">
          <mxGeometry x="200" y="130" width="120" height="1340" as="geometry" />
        </mxCell>
        <mxCell id="SVQNkhZTiH-Occnp4saY-3" value="" style="endArrow=none;html=1;rounded=0;strokeWidth=3;" edge="1" parent="SVQNkhZTiH-Occnp4saY-2">
          <mxGeometry width="50" height="50" relative="1" as="geometry">
            <mxPoint y="1310" as="sourcePoint" />
            <mxPoint y="30" as="targetPoint" />
          </mxGeometry>
        </mxCell>
        <mxCell id="SVQNkhZTiH-Occnp4saY-4" value="" style="endArrow=none;html=1;rounded=0;edgeStyle=orthogonalEdgeStyle;curved=1;strokeWidth=3;" edge="1" parent="SVQNkhZTiH-Occnp4saY-2">
          <mxGeometry width="50" height="50" relative="1" as="geometry">
            <mxPoint y="30" as="sourcePoint" />
            <mxPoint x="80" y="30" as="targetPoint" />
            <Array as="points">
              <mxPoint />
              <mxPoint x="80" />
            </Array>
          </mxGeometry>
        </mxCell>
        <mxCell id="SVQNkhZTiH-Occnp4saY-5" value="" style="endArrow=none;html=1;rounded=0;edgeStyle=orthogonalEdgeStyle;curved=1;strokeWidth=3;" edge="1" parent="SVQNkhZTiH-Occnp4saY-2">
          <mxGeometry width="50" height="50" relative="1" as="geometry">
            <mxPoint x="80" y="1310" as="sourcePoint" />
            <mxPoint y="1310" as="targetPoint" />
            <Array as="points">
              <mxPoint x="80" y="1340" />
              <mxPoint y="1340" />
            </Array>
          </mxGeometry>
        </mxCell>
        <mxCell id="SVQNkhZTiH-Occnp4saY-6" value="" style="endArrow=none;html=1;rounded=0;strokeWidth=3;" edge="1" parent="SVQNkhZTiH-Occnp4saY-2">
          <mxGeometry width="50" height="50" relative="1" as="geometry">
            <mxPoint x="80" y="170" as="sourcePoint" />
            <mxPoint x="80" y="30" as="targetPoint" />
          </mxGeometry>
        </mxCell>
        <mxCell id="SVQNkhZTiH-Occnp4saY-7" value="" style="endArrow=none;html=1;rounded=0;strokeWidth=3;" edge="1" parent="SVQNkhZTiH-Occnp4saY-2">
          <mxGeometry width="50" height="50" relative="1" as="geometry">
            <mxPoint x="80" y="1310" as="sourcePoint" />
            <mxPoint x="80" y="1170" as="targetPoint" />
          </mxGeometry>
        </mxCell>
        <mxCell id="SVQNkhZTiH-Occnp4saY-8" value="" style="endArrow=none;html=1;rounded=0;curved=1;strokeWidth=3;" edge="1" parent="SVQNkhZTiH-Occnp4saY-2">
          <mxGeometry width="50" height="50" relative="1" as="geometry">
            <mxPoint x="40" y="310" as="sourcePoint" />
            <mxPoint x="80" y="170" as="targetPoint" />
            <Array as="points">
              <mxPoint x="40" y="230" />
            </Array>
          </mxGeometry>
        </mxCell>
        <mxCell id="SVQNkhZTiH-Occnp4saY-9" value="" style="endArrow=none;html=1;rounded=0;curved=1;strokeWidth=3;" edge="1" parent="SVQNkhZTiH-Occnp4saY-2">
          <mxGeometry width="50" height="50" relative="1" as="geometry">
            <mxPoint x="80" y="1170" as="sourcePoint" />
            <mxPoint x="40" y="1030" as="targetPoint" />
            <Array as="points">
              <mxPoint x="40" y="1110" />
            </Array>
          </mxGeometry>
        </mxCell>
        <mxCell id="SVQNkhZTiH-Occnp4saY-10" value="" style="endArrow=none;html=1;rounded=0;strokeWidth=3;" edge="1" parent="SVQNkhZTiH-Occnp4saY-2">
          <mxGeometry width="50" height="50" relative="1" as="geometry">
            <mxPoint x="40" y="1031.6666666666667" as="sourcePoint" />
            <mxPoint x="40" y="310" as="targetPoint" />
          </mxGeometry>
        </mxCell>
        <mxCell id="SVQNkhZTiH-Occnp4saY-11" value="" style="endArrow=none;html=1;rounded=1;edgeStyle=orthogonalEdgeStyle;curved=0;strokeWidth=3;" edge="1" parent="SVQNkhZTiH-Occnp4saY-2">
          <mxGeometry width="50" height="50" relative="1" as="geometry">
            <mxPoint x="20" y="50" as="sourcePoint" />
            <mxPoint x="60" y="50" as="targetPoint" />
            <Array as="points">
              <mxPoint x="20" y="30" />
              <mxPoint x="60" y="30" />
            </Array>
          </mxGeometry>
        </mxCell>
        <mxCell id="SVQNkhZTiH-Occnp4saY-12" value="" style="endArrow=none;html=1;rounded=1;edgeStyle=orthogonalEdgeStyle;curved=0;strokeWidth=3;" edge="1" parent="SVQNkhZTiH-Occnp4saY-2">
          <mxGeometry width="50" height="50" relative="1" as="geometry">
            <mxPoint x="20" y="130" as="sourcePoint" />
            <mxPoint x="60" y="130" as="targetPoint" />
            <Array as="points">
              <mxPoint x="20" y="150" />
              <mxPoint x="60" y="150" />
            </Array>
          </mxGeometry>
        </mxCell>
        <mxCell id="SVQNkhZTiH-Occnp4saY-13" value="" style="endArrow=none;html=1;rounded=0;strokeWidth=3;" edge="1" parent="SVQNkhZTiH-Occnp4saY-2">
          <mxGeometry width="50" height="50" relative="1" as="geometry">
            <mxPoint x="20" y="130" as="sourcePoint" />
            <mxPoint x="20" y="50" as="targetPoint" />
          </mxGeometry>
        </mxCell>
        <mxCell id="SVQNkhZTiH-Occnp4saY-14" value="" style="endArrow=none;html=1;rounded=0;strokeWidth=3;" edge="1" parent="SVQNkhZTiH-Occnp4saY-2">
          <mxGeometry width="50" height="50" relative="1" as="geometry">
            <mxPoint x="60" y="130" as="sourcePoint" />
            <mxPoint x="60" y="50" as="targetPoint" />
          </mxGeometry>
        </mxCell>
        <mxCell id="SVQNkhZTiH-Occnp4saY-15" value="" style="endArrow=none;html=1;rounded=1;edgeStyle=orthogonalEdgeStyle;curved=0;strokeWidth=3;" edge="1" parent="SVQNkhZTiH-Occnp4saY-2">
          <mxGeometry width="50" height="50" relative="1" as="geometry">
            <mxPoint x="20" y="1210" as="sourcePoint" />
            <mxPoint x="60" y="1210" as="targetPoint" />
            <Array as="points">
              <mxPoint x="20" y="1190" />
              <mxPoint x="60" y="1190" />
            </Array>
          </mxGeometry>
        </mxCell>
        <mxCell id="SVQNkhZTiH-Occnp4saY-16" value="" style="endArrow=none;html=1;rounded=1;edgeStyle=orthogonalEdgeStyle;curved=0;strokeWidth=3;" edge="1" parent="SVQNkhZTiH-Occnp4saY-2">
          <mxGeometry width="50" height="50" relative="1" as="geometry">
            <mxPoint x="20" y="1290" as="sourcePoint" />
            <mxPoint x="60" y="1290" as="targetPoint" />
            <Array as="points">
              <mxPoint x="20" y="1310" />
              <mxPoint x="60" y="1310" />
            </Array>
          </mxGeometry>
        </mxCell>
        <mxCell id="SVQNkhZTiH-Occnp4saY-17" value="" style="endArrow=none;html=1;rounded=0;strokeWidth=3;" edge="1" parent="SVQNkhZTiH-Occnp4saY-2">
          <mxGeometry width="50" height="50" relative="1" as="geometry">
            <mxPoint x="20" y="1290" as="sourcePoint" />
            <mxPoint x="20" y="1210" as="targetPoint" />
          </mxGeometry>
        </mxCell>
        <mxCell id="SVQNkhZTiH-Occnp4saY-18" value="" style="endArrow=none;html=1;rounded=0;strokeWidth=3;" edge="1" parent="SVQNkhZTiH-Occnp4saY-2">
          <mxGeometry width="50" height="50" relative="1" as="geometry">
            <mxPoint x="60" y="1290" as="sourcePoint" />
            <mxPoint x="60" y="1210" as="targetPoint" />
          </mxGeometry>
        </mxCell>
        <mxCell id="SVQNkhZTiH-Occnp4saY-19" value="" style="endArrow=none;html=1;rounded=1;curved=0;strokeWidth=3;" edge="1" parent="SVQNkhZTiH-Occnp4saY-2">
          <mxGeometry width="50" height="50" relative="1" as="geometry">
            <mxPoint x="10" y="640" as="sourcePoint" />
            <mxPoint x="30" y="640" as="targetPoint" />
            <Array as="points">
              <mxPoint x="10" y="630" />
              <mxPoint x="30" y="630" />
            </Array>
          </mxGeometry>
        </mxCell>
        <mxCell id="SVQNkhZTiH-Occnp4saY-20" value="" style="endArrow=none;html=1;rounded=0;strokeWidth=3;" edge="1" parent="SVQNkhZTiH-Occnp4saY-2">
          <mxGeometry width="50" height="50" relative="1" as="geometry">
            <mxPoint x="10" y="700" as="sourcePoint" />
            <mxPoint x="10" y="640" as="targetPoint" />
          </mxGeometry>
        </mxCell>
        <mxCell id="SVQNkhZTiH-Occnp4saY-21" value="" style="endArrow=none;html=1;rounded=1;curved=0;strokeWidth=3;" edge="1" parent="SVQNkhZTiH-Occnp4saY-2">
          <mxGeometry width="50" height="50" relative="1" as="geometry">
            <mxPoint x="10" y="700" as="sourcePoint" />
            <mxPoint x="30" y="700" as="targetPoint" />
            <Array as="points">
              <mxPoint x="10" y="710" />
              <mxPoint x="30" y="710" />
            </Array>
          </mxGeometry>
        </mxCell>
        <mxCell id="SVQNkhZTiH-Occnp4saY-22" value="" style="endArrow=none;html=1;rounded=0;strokeWidth=3;" edge="1" parent="SVQNkhZTiH-Occnp4saY-2">
          <mxGeometry width="50" height="50" relative="1" as="geometry">
            <mxPoint x="30" y="700" as="sourcePoint" />
            <mxPoint x="30" y="640" as="targetPoint" />
          </mxGeometry>
        </mxCell>
        <mxCell id="SVQNkhZTiH-Occnp4saY-1" value="" style="rounded=0;whiteSpace=wrap;html=1;fillColor=#ec1313;fontColor=#333333;strokeColor=none;" vertex="1" parent="SVQNkhZTiH-Occnp4saY-2">
          <mxGeometry y="590" width="40" height="30" as="geometry" />
        </mxCell>
        <mxCell id="iIcFaBGlOrtp0eejhK79-1" value="" style="group;strokeWidth=3;rotation=-180;" vertex="1" connectable="0" parent="1">
          <mxGeometry x="280" y="130" width="120" height="1340" as="geometry" />
        </mxCell>
        <mxCell id="iIcFaBGlOrtp0eejhK79-2" value="" style="endArrow=none;html=1;rounded=0;strokeWidth=3;" edge="1" parent="iIcFaBGlOrtp0eejhK79-1">
          <mxGeometry width="50" height="50" relative="1" as="geometry">
            <mxPoint x="120" y="30" as="sourcePoint" />
            <mxPoint x="120" y="1310" as="targetPoint" />
          </mxGeometry>
        </mxCell>
        <mxCell id="iIcFaBGlOrtp0eejhK79-3" value="" style="endArrow=none;html=1;rounded=0;edgeStyle=orthogonalEdgeStyle;curved=1;strokeWidth=3;" edge="1" parent="iIcFaBGlOrtp0eejhK79-1">
          <mxGeometry width="50" height="50" relative="1" as="geometry">
            <mxPoint x="120" y="1310" as="sourcePoint" />
            <mxPoint x="40" y="1310" as="targetPoint" />
            <Array as="points">
              <mxPoint x="120" y="1340" />
              <mxPoint x="40" y="1340" />
            </Array>
          </mxGeometry>
        </mxCell>
        <mxCell id="iIcFaBGlOrtp0eejhK79-4" value="" style="endArrow=none;html=1;rounded=0;edgeStyle=orthogonalEdgeStyle;curved=1;strokeWidth=3;" edge="1" parent="iIcFaBGlOrtp0eejhK79-1">
          <mxGeometry width="50" height="50" relative="1" as="geometry">
            <mxPoint x="40" y="30" as="sourcePoint" />
            <mxPoint x="120" y="30" as="targetPoint" />
            <Array as="points">
              <mxPoint x="40" />
              <mxPoint x="120" />
            </Array>
          </mxGeometry>
        </mxCell>
        <mxCell id="iIcFaBGlOrtp0eejhK79-5" value="" style="endArrow=none;html=1;rounded=0;strokeWidth=3;" edge="1" parent="iIcFaBGlOrtp0eejhK79-1">
          <mxGeometry width="50" height="50" relative="1" as="geometry">
            <mxPoint x="40" y="1170" as="sourcePoint" />
            <mxPoint x="40" y="1310" as="targetPoint" />
          </mxGeometry>
        </mxCell>
        <mxCell id="iIcFaBGlOrtp0eejhK79-6" value="" style="endArrow=none;html=1;rounded=0;strokeWidth=3;" edge="1" parent="iIcFaBGlOrtp0eejhK79-1">
          <mxGeometry width="50" height="50" relative="1" as="geometry">
            <mxPoint x="40" y="30" as="sourcePoint" />
            <mxPoint x="40" y="170" as="targetPoint" />
          </mxGeometry>
        </mxCell>
        <mxCell id="iIcFaBGlOrtp0eejhK79-7" value="" style="endArrow=none;html=1;rounded=0;curved=1;strokeWidth=3;" edge="1" parent="iIcFaBGlOrtp0eejhK79-1">
          <mxGeometry width="50" height="50" relative="1" as="geometry">
            <mxPoint x="80" y="1030" as="sourcePoint" />
            <mxPoint x="40" y="1170" as="targetPoint" />
            <Array as="points">
              <mxPoint x="80" y="1110" />
            </Array>
          </mxGeometry>
        </mxCell>
        <mxCell id="iIcFaBGlOrtp0eejhK79-8" value="" style="endArrow=none;html=1;rounded=0;curved=1;strokeWidth=3;" edge="1" parent="iIcFaBGlOrtp0eejhK79-1">
          <mxGeometry width="50" height="50" relative="1" as="geometry">
            <mxPoint x="40" y="170" as="sourcePoint" />
            <mxPoint x="80" y="310" as="targetPoint" />
            <Array as="points">
              <mxPoint x="80" y="230" />
            </Array>
          </mxGeometry>
        </mxCell>
        <mxCell id="iIcFaBGlOrtp0eejhK79-9" value="" style="endArrow=none;html=1;rounded=0;strokeWidth=3;" edge="1" parent="iIcFaBGlOrtp0eejhK79-1">
          <mxGeometry width="50" height="50" relative="1" as="geometry">
            <mxPoint x="80" y="308" as="sourcePoint" />
            <mxPoint x="80" y="1030" as="targetPoint" />
          </mxGeometry>
        </mxCell>
        <mxCell id="iIcFaBGlOrtp0eejhK79-10" value="" style="endArrow=none;html=1;rounded=1;edgeStyle=orthogonalEdgeStyle;curved=0;strokeWidth=3;" edge="1" parent="iIcFaBGlOrtp0eejhK79-1">
          <mxGeometry width="50" height="50" relative="1" as="geometry">
            <mxPoint x="100" y="1290" as="sourcePoint" />
            <mxPoint x="60" y="1290" as="targetPoint" />
            <Array as="points">
              <mxPoint x="100" y="1310" />
              <mxPoint x="60" y="1310" />
            </Array>
          </mxGeometry>
        </mxCell>
        <mxCell id="iIcFaBGlOrtp0eejhK79-11" value="" style="endArrow=none;html=1;rounded=1;edgeStyle=orthogonalEdgeStyle;curved=0;strokeWidth=3;" edge="1" parent="iIcFaBGlOrtp0eejhK79-1">
          <mxGeometry width="50" height="50" relative="1" as="geometry">
            <mxPoint x="100" y="1210" as="sourcePoint" />
            <mxPoint x="60" y="1210" as="targetPoint" />
            <Array as="points">
              <mxPoint x="100" y="1190" />
              <mxPoint x="60" y="1190" />
            </Array>
          </mxGeometry>
        </mxCell>
        <mxCell id="iIcFaBGlOrtp0eejhK79-12" value="" style="endArrow=none;html=1;rounded=0;strokeWidth=3;" edge="1" parent="iIcFaBGlOrtp0eejhK79-1">
          <mxGeometry width="50" height="50" relative="1" as="geometry">
            <mxPoint x="100" y="1210" as="sourcePoint" />
            <mxPoint x="100" y="1290" as="targetPoint" />
          </mxGeometry>
        </mxCell>
        <mxCell id="iIcFaBGlOrtp0eejhK79-13" value="" style="endArrow=none;html=1;rounded=0;strokeWidth=3;" edge="1" parent="iIcFaBGlOrtp0eejhK79-1">
          <mxGeometry width="50" height="50" relative="1" as="geometry">
            <mxPoint x="60" y="1210" as="sourcePoint" />
            <mxPoint x="60" y="1290" as="targetPoint" />
          </mxGeometry>
        </mxCell>
        <mxCell id="iIcFaBGlOrtp0eejhK79-14" value="" style="endArrow=none;html=1;rounded=1;edgeStyle=orthogonalEdgeStyle;curved=0;strokeWidth=3;" edge="1" parent="iIcFaBGlOrtp0eejhK79-1">
          <mxGeometry width="50" height="50" relative="1" as="geometry">
            <mxPoint x="100" y="130" as="sourcePoint" />
            <mxPoint x="60" y="130" as="targetPoint" />
            <Array as="points">
              <mxPoint x="100" y="150" />
              <mxPoint x="60" y="150" />
            </Array>
          </mxGeometry>
        </mxCell>
        <mxCell id="iIcFaBGlOrtp0eejhK79-15" value="" style="endArrow=none;html=1;rounded=1;edgeStyle=orthogonalEdgeStyle;curved=0;strokeWidth=3;" edge="1" parent="iIcFaBGlOrtp0eejhK79-1">
          <mxGeometry width="50" height="50" relative="1" as="geometry">
            <mxPoint x="100" y="50" as="sourcePoint" />
            <mxPoint x="60" y="50" as="targetPoint" />
            <Array as="points">
              <mxPoint x="100" y="30" />
              <mxPoint x="60" y="30" />
            </Array>
          </mxGeometry>
        </mxCell>
        <mxCell id="iIcFaBGlOrtp0eejhK79-16" value="" style="endArrow=none;html=1;rounded=0;strokeWidth=3;" edge="1" parent="iIcFaBGlOrtp0eejhK79-1">
          <mxGeometry width="50" height="50" relative="1" as="geometry">
            <mxPoint x="100" y="50" as="sourcePoint" />
            <mxPoint x="100" y="130" as="targetPoint" />
          </mxGeometry>
        </mxCell>
        <mxCell id="iIcFaBGlOrtp0eejhK79-17" value="" style="endArrow=none;html=1;rounded=0;strokeWidth=3;" edge="1" parent="iIcFaBGlOrtp0eejhK79-1">
          <mxGeometry width="50" height="50" relative="1" as="geometry">
            <mxPoint x="60" y="50" as="sourcePoint" />
            <mxPoint x="60" y="130" as="targetPoint" />
          </mxGeometry>
        </mxCell>
        <mxCell id="iIcFaBGlOrtp0eejhK79-18" value="" style="endArrow=none;html=1;rounded=1;curved=0;strokeWidth=3;" edge="1" parent="iIcFaBGlOrtp0eejhK79-1">
          <mxGeometry width="50" height="50" relative="1" as="geometry">
            <mxPoint x="110" y="700" as="sourcePoint" />
            <mxPoint x="90" y="700" as="targetPoint" />
            <Array as="points">
              <mxPoint x="110" y="710" />
              <mxPoint x="90" y="710" />
            </Array>
          </mxGeometry>
        </mxCell>
        <mxCell id="iIcFaBGlOrtp0eejhK79-19" value="" style="endArrow=none;html=1;rounded=0;strokeWidth=3;" edge="1" parent="iIcFaBGlOrtp0eejhK79-1">
          <mxGeometry width="50" height="50" relative="1" as="geometry">
            <mxPoint x="110" y="640" as="sourcePoint" />
            <mxPoint x="110" y="700" as="targetPoint" />
          </mxGeometry>
        </mxCell>
        <mxCell id="iIcFaBGlOrtp0eejhK79-20" value="" style="endArrow=none;html=1;rounded=1;curved=0;strokeWidth=3;" edge="1" parent="iIcFaBGlOrtp0eejhK79-1">
          <mxGeometry width="50" height="50" relative="1" as="geometry">
            <mxPoint x="110" y="640" as="sourcePoint" />
            <mxPoint x="90" y="640" as="targetPoint" />
            <Array as="points">
              <mxPoint x="110" y="630" />
              <mxPoint x="90" y="630" />
            </Array>
          </mxGeometry>
        </mxCell>
        <mxCell id="iIcFaBGlOrtp0eejhK79-21" value="" style="endArrow=none;html=1;rounded=0;strokeWidth=3;" edge="1" parent="iIcFaBGlOrtp0eejhK79-1">
          <mxGeometry width="50" height="50" relative="1" as="geometry">
            <mxPoint x="90" y="640" as="sourcePoint" />
            <mxPoint x="90" y="700" as="targetPoint" />
          </mxGeometry>
        </mxCell>
        <mxCell id="iIcFaBGlOrtp0eejhK79-23" value="" style="group;strokeWidth=3;" vertex="1" connectable="0" parent="1">
          <mxGeometry x="430" y="130" width="120" height="1340" as="geometry" />
        </mxCell>
        <mxCell id="iIcFaBGlOrtp0eejhK79-24" value="" style="endArrow=none;html=1;rounded=0;strokeWidth=3;" edge="1" parent="iIcFaBGlOrtp0eejhK79-23">
          <mxGeometry width="50" height="50" relative="1" as="geometry">
            <mxPoint y="1310" as="sourcePoint" />
            <mxPoint y="30" as="targetPoint" />
          </mxGeometry>
        </mxCell>
        <mxCell id="iIcFaBGlOrtp0eejhK79-25" value="" style="endArrow=none;html=1;rounded=0;edgeStyle=orthogonalEdgeStyle;curved=1;strokeWidth=3;" edge="1" parent="iIcFaBGlOrtp0eejhK79-23">
          <mxGeometry width="50" height="50" relative="1" as="geometry">
            <mxPoint y="30" as="sourcePoint" />
            <mxPoint x="80" y="30" as="targetPoint" />
            <Array as="points">
              <mxPoint />
              <mxPoint x="80" />
            </Array>
          </mxGeometry>
        </mxCell>
        <mxCell id="iIcFaBGlOrtp0eejhK79-26" value="" style="endArrow=none;html=1;rounded=0;edgeStyle=orthogonalEdgeStyle;curved=1;strokeWidth=3;" edge="1" parent="iIcFaBGlOrtp0eejhK79-23">
          <mxGeometry width="50" height="50" relative="1" as="geometry">
            <mxPoint x="80" y="1310" as="sourcePoint" />
            <mxPoint y="1310" as="targetPoint" />
            <Array as="points">
              <mxPoint x="80" y="1340" />
              <mxPoint y="1340" />
            </Array>
          </mxGeometry>
        </mxCell>
        <mxCell id="iIcFaBGlOrtp0eejhK79-27" value="" style="endArrow=none;html=1;rounded=0;strokeWidth=3;" edge="1" parent="iIcFaBGlOrtp0eejhK79-23">
          <mxGeometry width="50" height="50" relative="1" as="geometry">
            <mxPoint x="80" y="170" as="sourcePoint" />
            <mxPoint x="80" y="30" as="targetPoint" />
          </mxGeometry>
        </mxCell>
        <mxCell id="iIcFaBGlOrtp0eejhK79-28" value="" style="endArrow=none;html=1;rounded=0;strokeWidth=3;" edge="1" parent="iIcFaBGlOrtp0eejhK79-23">
          <mxGeometry width="50" height="50" relative="1" as="geometry">
            <mxPoint x="80" y="1310" as="sourcePoint" />
            <mxPoint x="80" y="1170" as="targetPoint" />
          </mxGeometry>
        </mxCell>
        <mxCell id="iIcFaBGlOrtp0eejhK79-29" value="" style="endArrow=none;html=1;rounded=0;curved=1;strokeWidth=3;" edge="1" parent="iIcFaBGlOrtp0eejhK79-23">
          <mxGeometry width="50" height="50" relative="1" as="geometry">
            <mxPoint x="40" y="310" as="sourcePoint" />
            <mxPoint x="80" y="170" as="targetPoint" />
            <Array as="points">
              <mxPoint x="40" y="230" />
            </Array>
          </mxGeometry>
        </mxCell>
        <mxCell id="iIcFaBGlOrtp0eejhK79-30" value="" style="endArrow=none;html=1;rounded=0;curved=1;strokeWidth=3;" edge="1" parent="iIcFaBGlOrtp0eejhK79-23">
          <mxGeometry width="50" height="50" relative="1" as="geometry">
            <mxPoint x="80" y="1170" as="sourcePoint" />
            <mxPoint x="40" y="1030" as="targetPoint" />
            <Array as="points">
              <mxPoint x="40" y="1110" />
            </Array>
          </mxGeometry>
        </mxCell>
        <mxCell id="iIcFaBGlOrtp0eejhK79-31" value="" style="endArrow=none;html=1;rounded=0;strokeWidth=3;" edge="1" parent="iIcFaBGlOrtp0eejhK79-23">
          <mxGeometry width="50" height="50" relative="1" as="geometry">
            <mxPoint x="40" y="1031.6666666666667" as="sourcePoint" />
            <mxPoint x="40" y="310" as="targetPoint" />
          </mxGeometry>
        </mxCell>
        <mxCell id="iIcFaBGlOrtp0eejhK79-32" value="" style="endArrow=none;html=1;rounded=1;edgeStyle=orthogonalEdgeStyle;curved=0;strokeWidth=3;" edge="1" parent="iIcFaBGlOrtp0eejhK79-23">
          <mxGeometry width="50" height="50" relative="1" as="geometry">
            <mxPoint x="20" y="50" as="sourcePoint" />
            <mxPoint x="60" y="50" as="targetPoint" />
            <Array as="points">
              <mxPoint x="20" y="30" />
              <mxPoint x="60" y="30" />
            </Array>
          </mxGeometry>
        </mxCell>
        <mxCell id="iIcFaBGlOrtp0eejhK79-33" value="" style="endArrow=none;html=1;rounded=1;edgeStyle=orthogonalEdgeStyle;curved=0;strokeWidth=3;" edge="1" parent="iIcFaBGlOrtp0eejhK79-23">
          <mxGeometry width="50" height="50" relative="1" as="geometry">
            <mxPoint x="20" y="130" as="sourcePoint" />
            <mxPoint x="60" y="130" as="targetPoint" />
            <Array as="points">
              <mxPoint x="20" y="150" />
              <mxPoint x="60" y="150" />
            </Array>
          </mxGeometry>
        </mxCell>
        <mxCell id="iIcFaBGlOrtp0eejhK79-34" value="" style="endArrow=none;html=1;rounded=0;strokeWidth=3;" edge="1" parent="iIcFaBGlOrtp0eejhK79-23">
          <mxGeometry width="50" height="50" relative="1" as="geometry">
            <mxPoint x="20" y="130" as="sourcePoint" />
            <mxPoint x="20" y="50" as="targetPoint" />
          </mxGeometry>
        </mxCell>
        <mxCell id="iIcFaBGlOrtp0eejhK79-35" value="" style="endArrow=none;html=1;rounded=0;strokeWidth=3;" edge="1" parent="iIcFaBGlOrtp0eejhK79-23">
          <mxGeometry width="50" height="50" relative="1" as="geometry">
            <mxPoint x="60" y="130" as="sourcePoint" />
            <mxPoint x="60" y="50" as="targetPoint" />
          </mxGeometry>
        </mxCell>
        <mxCell id="iIcFaBGlOrtp0eejhK79-36" value="" style="endArrow=none;html=1;rounded=1;edgeStyle=orthogonalEdgeStyle;curved=0;strokeWidth=3;" edge="1" parent="iIcFaBGlOrtp0eejhK79-23">
          <mxGeometry width="50" height="50" relative="1" as="geometry">
            <mxPoint x="20" y="1210" as="sourcePoint" />
            <mxPoint x="60" y="1210" as="targetPoint" />
            <Array as="points">
              <mxPoint x="20" y="1190" />
              <mxPoint x="60" y="1190" />
            </Array>
          </mxGeometry>
        </mxCell>
        <mxCell id="iIcFaBGlOrtp0eejhK79-37" value="" style="endArrow=none;html=1;rounded=1;edgeStyle=orthogonalEdgeStyle;curved=0;strokeWidth=3;" edge="1" parent="iIcFaBGlOrtp0eejhK79-23">
          <mxGeometry width="50" height="50" relative="1" as="geometry">
            <mxPoint x="20" y="1290" as="sourcePoint" />
            <mxPoint x="60" y="1290" as="targetPoint" />
            <Array as="points">
              <mxPoint x="20" y="1310" />
              <mxPoint x="60" y="1310" />
            </Array>
          </mxGeometry>
        </mxCell>
        <mxCell id="iIcFaBGlOrtp0eejhK79-38" value="" style="endArrow=none;html=1;rounded=0;strokeWidth=3;" edge="1" parent="iIcFaBGlOrtp0eejhK79-23">
          <mxGeometry width="50" height="50" relative="1" as="geometry">
            <mxPoint x="20" y="1290" as="sourcePoint" />
            <mxPoint x="20" y="1210" as="targetPoint" />
          </mxGeometry>
        </mxCell>
        <mxCell id="iIcFaBGlOrtp0eejhK79-39" value="" style="endArrow=none;html=1;rounded=0;strokeWidth=3;" edge="1" parent="iIcFaBGlOrtp0eejhK79-23">
          <mxGeometry width="50" height="50" relative="1" as="geometry">
            <mxPoint x="60" y="1290" as="sourcePoint" />
            <mxPoint x="60" y="1210" as="targetPoint" />
          </mxGeometry>
        </mxCell>
        <mxCell id="iIcFaBGlOrtp0eejhK79-40" value="" style="endArrow=none;html=1;rounded=1;curved=0;strokeWidth=3;" edge="1" parent="iIcFaBGlOrtp0eejhK79-23">
          <mxGeometry width="50" height="50" relative="1" as="geometry">
            <mxPoint x="10" y="640" as="sourcePoint" />
            <mxPoint x="30" y="640" as="targetPoint" />
            <Array as="points">
              <mxPoint x="10" y="630" />
              <mxPoint x="30" y="630" />
            </Array>
          </mxGeometry>
        </mxCell>
        <mxCell id="iIcFaBGlOrtp0eejhK79-41" value="" style="endArrow=none;html=1;rounded=0;strokeWidth=3;" edge="1" parent="iIcFaBGlOrtp0eejhK79-23">
          <mxGeometry width="50" height="50" relative="1" as="geometry">
            <mxPoint x="10" y="700" as="sourcePoint" />
            <mxPoint x="10" y="640" as="targetPoint" />
          </mxGeometry>
        </mxCell>
        <mxCell id="iIcFaBGlOrtp0eejhK79-42" value="" style="endArrow=none;html=1;rounded=1;curved=0;strokeWidth=3;" edge="1" parent="iIcFaBGlOrtp0eejhK79-23">
          <mxGeometry width="50" height="50" relative="1" as="geometry">
            <mxPoint x="10" y="700" as="sourcePoint" />
            <mxPoint x="30" y="700" as="targetPoint" />
            <Array as="points">
              <mxPoint x="10" y="710" />
              <mxPoint x="30" y="710" />
            </Array>
          </mxGeometry>
        </mxCell>
        <mxCell id="iIcFaBGlOrtp0eejhK79-43" value="" style="endArrow=none;html=1;rounded=0;strokeWidth=3;" edge="1" parent="iIcFaBGlOrtp0eejhK79-23">
          <mxGeometry width="50" height="50" relative="1" as="geometry">
            <mxPoint x="30" y="700" as="sourcePoint" />
            <mxPoint x="30" y="640" as="targetPoint" />
          </mxGeometry>
        </mxCell>
        <mxCell id="iIcFaBGlOrtp0eejhK79-44" value="" style="rounded=0;whiteSpace=wrap;html=1;fillColor=#ec1313;fontColor=#333333;strokeColor=none;" vertex="1" parent="iIcFaBGlOrtp0eejhK79-23">
          <mxGeometry y="720" width="40" height="30" as="geometry" />
        </mxCell>
      </root>
    </mxGraphModel>
  </diagram>
</mxfile>
